<svg xmlns="http://www.w3.org/2000/svg" width="20.457" height="17.387" viewBox="0 0 20.457 17.387">
  <g id="bxs-cart-alt" transform="translate(-3 -6)">
    <path id="Path_813" data-name="Path 813" d="M22.433,6H3V8.046H5.352l3.6,9.9A2.05,2.05,0,0,0,10.875,19.3h8.489V17.251H10.875l-.745-2.046h9.234a1.022,1.022,0,0,0,.94-.62l3.068-7.16A1.021,1.021,0,0,0,22.433,6Z" transform="translate(0 0)" fill="#d44215"/>
    <path id="Path_814" data-name="Path 814" d="M16.568,28.534A1.534,1.534,0,1,1,15.034,27,1.534,1.534,0,0,1,16.568,28.534Z" transform="translate(-3.34 -6.681)" fill="#d44215"/>
    <path id="Path_815" data-name="Path 815" d="M25.568,28.534A1.534,1.534,0,1,1,24.034,27,1.534,1.534,0,0,1,25.568,28.534Z" transform="translate(-6.204 -6.681)" fill="#d44215"/>
  </g>
</svg>
