<svg id="Group_1136" data-name="Group 1136" xmlns="http://www.w3.org/2000/svg" xmlns:xlink="http://www.w3.org/1999/xlink" width="198.016" height="64.182" viewBox="0 0 198.016 64.182">
  <defs>
    <linearGradient id="linear-gradient" x1="0.5" x2="0.5" y2="1" gradientUnits="objectBoundingBox">
      <stop offset="0" stop-color="#d54315"/>
      <stop offset="1" stop-color="#a42910"/>
    </linearGradient>
  </defs>
  <path id="Path_808" data-name="Path 808" d="M10.4-9.452,6.321-1.6V2.859H4.3V-1.6L.21-9.452H2.46l2.852,6.04,2.852-6.04Zm5.438,12.47a5,5,0,0,1-2.5-.629A4.517,4.517,0,0,1,11.582.618a5.343,5.343,0,0,1-.638-2.648A5.241,5.241,0,0,1,11.6-4.669,4.527,4.527,0,0,1,13.389-6.44a5.191,5.191,0,0,1,2.533-.62,5.191,5.191,0,0,1,2.533.62,4.527,4.527,0,0,1,1.789,1.771A5.241,5.241,0,0,1,20.9-2.03,5.132,5.132,0,0,1,20.226.61a4.661,4.661,0,0,1-1.833,1.78A5.284,5.284,0,0,1,15.833,3.019Zm0-1.754A3,3,0,0,0,17.294.893,2.834,2.834,0,0,0,18.4-.223a3.588,3.588,0,0,0,.425-1.807,3.662,3.662,0,0,0-.407-1.8,2.75,2.75,0,0,0-1.081-1.107,2.955,2.955,0,0,0-1.452-.372,2.906,2.906,0,0,0-1.444.372,2.655,2.655,0,0,0-1.054,1.107A3.8,3.8,0,0,0,13-2.03,3.425,3.425,0,0,0,13.8.406,2.663,2.663,0,0,0,15.833,1.265ZM31.35-6.9v9.76H29.33V1.708a3.268,3.268,0,0,1-1.249.948A3.96,3.96,0,0,1,26.443,3a4.377,4.377,0,0,1-2.064-.478,3.455,3.455,0,0,1-1.435-1.417,4.6,4.6,0,0,1-.523-2.267V-6.9h2v5.438a2.833,2.833,0,0,0,.655,2.01,2.333,2.333,0,0,0,1.789.7,2.361,2.361,0,0,0,1.8-.7,2.809,2.809,0,0,0,.664-2.01V-6.9Zm4.287,1.417a3.171,3.171,0,0,1,1.178-1.16,3.484,3.484,0,0,1,1.745-.416v2.09h-.514a2.459,2.459,0,0,0-1.8.6,2.88,2.88,0,0,0-.611,2.09V2.859H33.617V-6.9h2.019Zm12.842,8.5a5,5,0,0,1-2.5-.629A4.517,4.517,0,0,1,44.227.618,5.343,5.343,0,0,1,43.59-2.03a5.241,5.241,0,0,1,.655-2.639A4.527,4.527,0,0,1,46.034-6.44a5.191,5.191,0,0,1,2.533-.62,5.191,5.191,0,0,1,2.533.62,4.527,4.527,0,0,1,1.789,1.771,5.241,5.241,0,0,1,.655,2.639A5.132,5.132,0,0,1,52.871.61a4.661,4.661,0,0,1-1.833,1.78A5.284,5.284,0,0,1,48.478,3.019Zm0-1.754A3,3,0,0,0,49.94.893,2.834,2.834,0,0,0,51.047-.223a3.588,3.588,0,0,0,.425-1.807,3.662,3.662,0,0,0-.407-1.8,2.75,2.75,0,0,0-1.081-1.107,2.955,2.955,0,0,0-1.452-.372,2.906,2.906,0,0,0-1.444.372,2.655,2.655,0,0,0-1.054,1.107,3.8,3.8,0,0,0-.39,1.8A3.425,3.425,0,0,0,46.45.406,2.663,2.663,0,0,0,48.478,1.265Zm11.6-8.325a4.377,4.377,0,0,1,2.064.478A3.4,3.4,0,0,1,63.57-5.165,4.661,4.661,0,0,1,64.084-2.9V2.859h-2V-2.6a2.833,2.833,0,0,0-.655-2.01,2.333,2.333,0,0,0-1.789-.7,2.361,2.361,0,0,0-1.8.7,2.809,2.809,0,0,0-.664,2.01V2.859H55.156V-6.9h2.019v1.116a3.343,3.343,0,0,1,1.266-.939A4.049,4.049,0,0,1,60.081-7.06Zm8.2-3.188V2.859H66.263V-10.249Zm3.295,2.055a1.251,1.251,0,0,1-.921-.372,1.251,1.251,0,0,1-.372-.921,1.251,1.251,0,0,1,.372-.921,1.251,1.251,0,0,1,.921-.372,1.23,1.23,0,0,1,.9.372,1.251,1.251,0,0,1,.372.921,1.251,1.251,0,0,1-.372.921A1.23,1.23,0,0,1,71.576-8.194ZM72.568-6.9v9.76H70.549V-6.9ZM79.76-7.06a4.377,4.377,0,0,1,2.064.478,3.4,3.4,0,0,1,1.426,1.417A4.661,4.661,0,0,1,83.763-2.9V2.859h-2V-2.6a2.833,2.833,0,0,0-.655-2.01,2.333,2.333,0,0,0-1.789-.7,2.361,2.361,0,0,0-1.8.7,2.809,2.809,0,0,0-.664,2.01V2.859H74.836V-6.9h2.019v1.116a3.343,3.343,0,0,1,1.266-.939A4.049,4.049,0,0,1,79.76-7.06Zm15.127,4.8a6.313,6.313,0,0,1-.071.992H87.359A2.708,2.708,0,0,0,88.227.61a2.74,2.74,0,0,0,1.913.709,2.363,2.363,0,0,0,2.3-1.364h2.179a4.4,4.4,0,0,1-1.6,2.205,4.7,4.7,0,0,1-2.878.859,4.985,4.985,0,0,1-2.506-.629A4.474,4.474,0,0,1,85.9.618a5.4,5.4,0,0,1-.629-2.648,5.53,5.53,0,0,1,.611-2.648A4.3,4.3,0,0,1,87.6-6.44a5.113,5.113,0,0,1,2.542-.62,4.971,4.971,0,0,1,2.462.6,4.256,4.256,0,0,1,1.683,1.692A5.1,5.1,0,0,1,94.887-2.26ZM92.779-2.9a2.3,2.3,0,0,0-.8-1.789,2.85,2.85,0,0,0-1.931-.673,2.593,2.593,0,0,0-1.789.664,2.776,2.776,0,0,0-.886,1.8Zm7.245.833a5.4,5.4,0,0,1,.611-2.6A4.479,4.479,0,0,1,102.3-6.431a4.493,4.493,0,0,1,2.347-.629,4.577,4.577,0,0,1,1.886.416,3.86,3.86,0,0,1,1.479,1.107v-4.712h2.037V2.859h-2.037V1.389a3.781,3.781,0,0,1-1.373,1.169,4.259,4.259,0,0,1-2.01.461,4.368,4.368,0,0,1-2.329-.647A4.563,4.563,0,0,1,100.635.565,5.558,5.558,0,0,1,100.024-2.065Zm7.989.035a3.534,3.534,0,0,0-.416-1.754,2.922,2.922,0,0,0-1.089-1.134,2.85,2.85,0,0,0-1.452-.39,2.9,2.9,0,0,0-1.452.381,2.872,2.872,0,0,0-1.089,1.116,3.484,3.484,0,0,0-.416,1.745,3.636,3.636,0,0,0,.416,1.771,2.937,2.937,0,0,0,1.1,1.16,2.817,2.817,0,0,0,1.444.4,2.85,2.85,0,0,0,1.452-.39A2.907,2.907,0,0,0,107.6-.267,3.585,3.585,0,0,0,108.013-2.03Zm13.249-.23a6.313,6.313,0,0,1-.071.992h-7.457A2.708,2.708,0,0,0,114.6.61a2.74,2.74,0,0,0,1.913.709,2.363,2.363,0,0,0,2.3-1.364H121a4.4,4.4,0,0,1-1.6,2.205,4.7,4.7,0,0,1-2.878.859,4.985,4.985,0,0,1-2.506-.629A4.474,4.474,0,0,1,112.273.618a5.4,5.4,0,0,1-.629-2.648,5.53,5.53,0,0,1,.611-2.648,4.3,4.3,0,0,1,1.718-1.762,5.113,5.113,0,0,1,2.542-.62,4.971,4.971,0,0,1,2.462.6,4.256,4.256,0,0,1,1.683,1.692A5.1,5.1,0,0,1,121.262-2.26ZM119.154-2.9a2.3,2.3,0,0,0-.8-1.789,2.85,2.85,0,0,0-1.931-.673,2.594,2.594,0,0,0-1.789.664,2.776,2.776,0,0,0-.886,1.8ZM126.4,3.019a4.917,4.917,0,0,1-2.064-.416,3.624,3.624,0,0,1-1.444-1.134,2.826,2.826,0,0,1-.567-1.6h2.09A1.425,1.425,0,0,0,125.008.9a2.155,2.155,0,0,0,1.355.416,2.282,2.282,0,0,0,1.32-.328.989.989,0,0,0,.469-.841.864.864,0,0,0-.523-.815,9.794,9.794,0,0,0-1.656-.585,15.985,15.985,0,0,1-1.789-.585,3.136,3.136,0,0,1-1.2-.868,2.275,2.275,0,0,1-.5-1.541,2.4,2.4,0,0,1,.461-1.426,3.067,3.067,0,0,1,1.32-1.019,4.931,4.931,0,0,1,1.975-.372,4.078,4.078,0,0,1,2.684.841,3.021,3.021,0,0,1,1.089,2.294h-2.019a1.438,1.438,0,0,0-.531-1.045,1.987,1.987,0,0,0-1.293-.39,2.1,2.1,0,0,0-1.222.3.932.932,0,0,0-.425.8.863.863,0,0,0,.283.655,2.019,2.019,0,0,0,.691.416q.407.151,1.2.381a13.1,13.1,0,0,1,1.745.576,3.248,3.248,0,0,1,1.178.859,2.273,2.273,0,0,1,.514,1.506,2.525,2.525,0,0,1-.461,1.488,3.053,3.053,0,0,1-1.3,1.027A4.851,4.851,0,0,1,126.4,3.019Zm7.882-8.272v5.4a1.037,1.037,0,0,0,.257.788,1.277,1.277,0,0,0,.877.239h1.24V2.859h-1.594a3.073,3.073,0,0,1-2.09-.638,2.628,2.628,0,0,1-.726-2.072v-5.4h-1.151V-6.9h1.151V-9.328h2.037V-6.9h2.374v1.647Zm4.871-2.94a1.251,1.251,0,0,1-.921-.372,1.251,1.251,0,0,1-.372-.921,1.251,1.251,0,0,1,.372-.921,1.251,1.251,0,0,1,.921-.372,1.23,1.23,0,0,1,.9.372,1.251,1.251,0,0,1,.372.921,1.251,1.251,0,0,1-.372.921A1.23,1.23,0,0,1,139.152-8.194Zm.992,1.293v9.76h-2.019V-6.9Zm7.192-.159a4.377,4.377,0,0,1,2.064.478,3.4,3.4,0,0,1,1.426,1.417,4.661,4.661,0,0,1,.514,2.267V2.859h-2V-2.6a2.833,2.833,0,0,0-.655-2.01,2.333,2.333,0,0,0-1.789-.7,2.361,2.361,0,0,0-1.8.7,2.809,2.809,0,0,0-.664,2.01V2.859h-2.019V-6.9h2.019v1.116a3.343,3.343,0,0,1,1.266-.939A4.049,4.049,0,0,1,147.336-7.06Zm5.509,5a5.4,5.4,0,0,1,.611-2.6,4.479,4.479,0,0,1,1.665-1.762,4.461,4.461,0,0,1,2.329-.629,4.261,4.261,0,0,1,2.01.452,4.08,4.08,0,0,1,1.373,1.125V-6.9h2.037v9.76h-2.037V1.407a4.01,4.01,0,0,1-1.4,1.151,4.313,4.313,0,0,1-2.019.461,4.292,4.292,0,0,1-2.3-.647A4.585,4.585,0,0,1,153.456.565,5.558,5.558,0,0,1,152.845-2.065Zm7.989.035a3.534,3.534,0,0,0-.416-1.754,2.922,2.922,0,0,0-1.089-1.134,2.85,2.85,0,0,0-1.452-.39,2.9,2.9,0,0,0-1.452.381,2.872,2.872,0,0,0-1.089,1.116,3.484,3.484,0,0,0-.416,1.745,3.636,3.636,0,0,0,.416,1.771,2.937,2.937,0,0,0,1.1,1.16,2.817,2.817,0,0,0,1.444.4,2.85,2.85,0,0,0,1.452-.39,2.907,2.907,0,0,0,1.089-1.143A3.585,3.585,0,0,0,160.833-2.03Zm6.66-3.224v5.4a1.037,1.037,0,0,0,.257.788,1.277,1.277,0,0,0,.877.239h1.24V2.859h-1.594a3.073,3.073,0,0,1-2.09-.638,2.628,2.628,0,0,1-.726-2.072v-5.4h-1.151V-6.9h1.151V-9.328h2.037V-6.9h2.374v1.647Zm4.871-2.94a1.251,1.251,0,0,1-.921-.372,1.251,1.251,0,0,1-.372-.921,1.251,1.251,0,0,1,.372-.921,1.251,1.251,0,0,1,.921-.372,1.23,1.23,0,0,1,.9.372,1.251,1.251,0,0,1,.372.921,1.251,1.251,0,0,1-.372.921A1.23,1.23,0,0,1,172.365-8.194Zm.992,1.293v9.76h-2.019V-6.9Zm6.5,9.919a5,5,0,0,1-2.5-.629A4.517,4.517,0,0,1,175.606.618a5.343,5.343,0,0,1-.638-2.648,5.241,5.241,0,0,1,.655-2.639,4.527,4.527,0,0,1,1.789-1.771,5.191,5.191,0,0,1,2.533-.62,5.191,5.191,0,0,1,2.533.62,4.527,4.527,0,0,1,1.789,1.771,5.241,5.241,0,0,1,.655,2.639A5.132,5.132,0,0,1,184.25.61a4.661,4.661,0,0,1-1.833,1.78A5.284,5.284,0,0,1,179.857,3.019Zm0-1.754a3,3,0,0,0,1.461-.372,2.834,2.834,0,0,0,1.107-1.116,3.588,3.588,0,0,0,.425-1.807,3.662,3.662,0,0,0-.407-1.8,2.75,2.75,0,0,0-1.081-1.107,2.955,2.955,0,0,0-1.452-.372,2.906,2.906,0,0,0-1.444.372,2.655,2.655,0,0,0-1.054,1.107,3.8,3.8,0,0,0-.39,1.8,3.425,3.425,0,0,0,.806,2.436A2.663,2.663,0,0,0,179.857,1.265Zm11.6-8.325a4.377,4.377,0,0,1,2.064.478,3.4,3.4,0,0,1,1.426,1.417,4.661,4.661,0,0,1,.514,2.267V2.859h-2V-2.6a2.833,2.833,0,0,0-.655-2.01,2.332,2.332,0,0,0-1.789-.7,2.361,2.361,0,0,0-1.8.7,2.809,2.809,0,0,0-.664,2.01V2.859h-2.019V-6.9h2.019v1.116a3.343,3.343,0,0,1,1.266-.939A4.049,4.049,0,0,1,191.459-7.06Z" transform="translate(0.696 61.163)" fill="#ae2e11"/>
  <path id="Path_77" data-name="Path 77" d="M8.25-28.99h7.232V10.585H8.25ZM-.562-32.55H24.293V-25.1H-.562ZM39,11.03a13.3,13.3,0,0,1-6.622-1.587,10.742,10.742,0,0,1-4.35-4.524,14.815,14.815,0,0,1-1.524-6.912V-19.972A14.906,14.906,0,0,1,28.03-26.9a10.631,10.631,0,0,1,4.35-4.524A13.4,13.4,0,0,1,39-33a13.462,13.462,0,0,1,6.65,1.572A10.631,10.631,0,0,1,50-26.9a14.906,14.906,0,0,1,1.524,6.927V-1.994A14.815,14.815,0,0,1,50,4.918a10.742,10.742,0,0,1-4.35,4.524A13.361,13.361,0,0,1,39,11.03Zm0-7.743a5.182,5.182,0,0,0,2.715-.7A4.5,4.5,0,0,0,43.492.617a6.882,6.882,0,0,0,.61-3V-19.645a6.808,6.808,0,0,0-.61-2.967,4.5,4.5,0,0,0-1.773-1.973,5.182,5.182,0,0,0-2.715-.7,5.109,5.109,0,0,0-2.7.7,4.53,4.53,0,0,0-1.759,1.973,6.808,6.808,0,0,0-.61,2.967V-2.38a6.882,6.882,0,0,0,.61,3A4.53,4.53,0,0,0,36.3,2.59,5.109,5.109,0,0,0,39,3.287Zm21.665-16.88h10a3.372,3.372,0,0,0,1.926-.549A3.621,3.621,0,0,0,73.871-15.7a5.628,5.628,0,0,0,.457-2.344v-2.522a6.05,6.05,0,0,0-.443-2.418,3.519,3.519,0,0,0-1.261-1.572A3.422,3.422,0,0,0,70.67-25.1h-10V-32.55h10a12.027,12.027,0,0,1,5.888,1.379A9.316,9.316,0,0,1,80.41-27.2a13.089,13.089,0,0,1,1.344,6.1v3.619A12.644,12.644,0,0,1,80.4-11.457a9.485,9.485,0,0,1-3.851,3.931A11.947,11.947,0,0,1,70.67-6.147h-10ZM57.343-32.55h7.232V10.585H57.343Zm49.74,43.58a12.82,12.82,0,0,1-6.553-1.587,10.224,10.224,0,0,1-4.156-4.613,16.924,16.924,0,0,1-1.427-7.268V-32.55h7.232V-2.231a5.967,5.967,0,0,0,1.288,4.094,4.579,4.579,0,0,0,3.616,1.454,4.657,4.657,0,0,0,3.657-1.454,5.926,5.926,0,0,0,1.3-4.094V-32.55H119.3V-2.439a16.784,16.784,0,0,1-1.441,7.268,10.281,10.281,0,0,1-4.184,4.613A12.954,12.954,0,0,1,107.083,11.03ZM128.36-13.593h10a3.372,3.372,0,0,0,1.926-.549,3.621,3.621,0,0,0,1.275-1.557,5.628,5.628,0,0,0,.457-2.344v-2.522a6.05,6.05,0,0,0-.443-2.418,3.519,3.519,0,0,0-1.261-1.572,3.422,3.422,0,0,0-1.953-.549h-10V-32.55h10a12.027,12.027,0,0,1,5.888,1.379A9.316,9.316,0,0,1,148.1-27.2a13.09,13.09,0,0,1,1.344,6.1v3.619a12.644,12.644,0,0,1-1.358,6.022,9.485,9.485,0,0,1-3.851,3.931,11.947,11.947,0,0,1-5.874,1.379h-10ZM125.035-32.55h7.232V10.585h-7.232Z" transform="translate(48.57 34.014)"/>
  <g id="Top-Up">
    <path id="Path_74" data-name="Path 74" d="M647.674-703.826l6.174,6.174h19.218v19.218l6,6,6,6V-710H641.5Z" transform="translate(-640.369 710)" fill="url(#linear-gradient)"/>
    <path id="Path_75" data-name="Path 75" d="M635-678.8v21.688h43.392l-6.087-6.087-6.087-6.087H647.174v-19.044l-6.087-6.087L635-700.5Z" transform="translate(-635 702.152)" fill="url(#linear-gradient)"/>
  </g>
</svg>
